        <svg
          xmlns="http://www.w3.org/2000/svg"
          width="160"
          height="36"
          viewBox="0 0 160 36"
          fill="none"
        >
          <path
            d="M149.918 31.34C150.886 31.34 151.737 31.3253 152.47 31.296C153.233 31.2373 153.864 31.1493 154.362 31.032V24.212C154.069 24.0653 153.585 23.948 152.91 23.86C152.265 23.7427 151.473 23.684 150.534 23.684C149.918 23.684 149.258 23.728 148.554 23.816C147.88 23.904 147.249 24.0947 146.662 24.388C146.105 24.652 145.636 25.0333 145.254 25.532C144.873 26.0013 144.682 26.632 144.682 27.424C144.682 28.8907 145.152 29.9173 146.09 30.504C147.029 31.0613 148.305 31.34 149.918 31.34ZM149.566 10.836C151.209 10.836 152.588 11.056 153.702 11.496C154.846 11.9067 155.756 12.508 156.43 13.3C157.134 14.0627 157.633 14.9867 157.926 16.072C158.22 17.128 158.366 18.3013 158.366 19.592V33.892C158.014 33.9507 157.516 34.0387 156.87 34.156C156.254 34.244 155.55 34.332 154.758 34.42C153.966 34.508 153.101 34.5813 152.162 34.64C151.253 34.728 150.344 34.772 149.434 34.772C148.144 34.772 146.956 34.64 145.87 34.376C144.785 34.112 143.846 33.7013 143.054 33.144C142.262 32.5573 141.646 31.7947 141.206 30.856C140.766 29.9173 140.546 28.788 140.546 27.468C140.546 26.2067 140.796 25.1213 141.294 24.212C141.822 23.3027 142.526 22.5693 143.406 22.012C144.286 21.4547 145.313 21.044 146.486 20.78C147.66 20.516 148.892 20.384 150.182 20.384C150.593 20.384 151.018 20.4133 151.458 20.472C151.898 20.5013 152.309 20.56 152.69 20.648C153.101 20.7067 153.453 20.7653 153.746 20.824C154.04 20.8827 154.245 20.9267 154.362 20.956V19.812C154.362 19.1373 154.289 18.4773 154.142 17.832C153.996 17.1573 153.732 16.5707 153.35 16.072C152.969 15.544 152.441 15.1333 151.766 14.84C151.121 14.5173 150.27 14.356 149.214 14.356C147.865 14.356 146.677 14.4587 145.65 14.664C144.653 14.84 143.905 15.0307 143.406 15.236L142.922 11.848C143.45 11.6133 144.33 11.3933 145.562 11.188C146.794 10.9533 148.129 10.836 149.566 10.836Z"
            fill="white"
          />
          <path
            d="M137.007 34.728C134.485 34.6693 132.695 34.1266 131.639 33.1C130.583 32.0733 130.055 30.4746 130.055 28.304V0.84798L134.147 0.143982V27.644C134.147 28.3186 134.206 28.876 134.323 29.316C134.44 29.756 134.631 30.108 134.895 30.372C135.159 30.636 135.511 30.8413 135.951 30.988C136.391 31.1053 136.934 31.208 137.579 31.296L137.007 34.728Z"
            fill="white"
          />
          <path
            d="M123.094 33.628C122.155 33.8626 120.908 34.112 119.354 34.376C117.828 34.64 116.054 34.772 114.03 34.772C112.27 34.772 110.788 34.5226 109.586 34.024C108.383 33.496 107.415 32.7626 106.682 31.824C105.948 30.8853 105.42 29.7853 105.098 28.524C104.775 27.2333 104.614 25.8106 104.614 24.256V11.408H108.706V23.376C108.706 26.1626 109.146 28.1573 110.026 29.36C110.906 30.5626 112.387 31.164 114.47 31.164C114.91 31.164 115.364 31.1493 115.834 31.12C116.303 31.0906 116.743 31.0613 117.154 31.032C117.564 30.9733 117.931 30.9293 118.254 30.9C118.606 30.8413 118.855 30.7826 119.002 30.724V11.408H123.094V33.628Z"
            fill="white"
          />
          <path
            d="M66.979 12.068C67.9177 11.8333 69.1497 11.584 70.675 11.32C72.2297 11.056 74.019 10.924 76.043 10.924C77.5097 10.924 78.7417 11.1293 79.739 11.54C80.7363 11.9213 81.5723 12.4933 82.247 13.256C82.4523 13.1093 82.775 12.904 83.215 12.64C83.655 12.376 84.1977 12.1267 84.843 11.892C85.4883 11.628 86.207 11.408 86.999 11.232C87.791 11.0267 88.6417 10.924 89.551 10.924C91.311 10.924 92.7483 11.188 93.863 11.716C94.9777 12.2147 95.843 12.9333 96.459 13.872C97.1043 14.8107 97.5297 15.9253 97.735 17.216C97.9697 18.5067 98.087 19.9147 98.087 21.44V34.288H93.995V22.32C93.995 20.9707 93.9217 19.812 93.775 18.844C93.6577 17.876 93.4083 17.0693 93.027 16.424C92.675 15.7787 92.1763 15.3093 91.531 15.016C90.915 14.6933 90.1083 14.532 89.111 14.532C87.7323 14.532 86.5883 14.7227 85.679 15.104C84.799 15.456 84.1977 15.7787 83.875 16.072C84.1097 16.8347 84.2857 17.6707 84.403 18.58C84.5203 19.4893 84.579 20.4427 84.579 21.44V34.288H80.487V22.32C80.487 20.9707 80.4137 19.812 80.267 18.844C80.1203 17.876 79.8563 17.0693 79.475 16.424C79.123 15.7787 78.6243 15.3093 77.979 15.016C77.363 14.6933 76.571 14.532 75.603 14.532C75.1923 14.532 74.7523 14.5467 74.283 14.576C73.8137 14.6053 73.359 14.6493 72.919 14.708C72.5083 14.7373 72.127 14.7813 71.775 14.84C71.423 14.8987 71.1883 14.9427 71.071 14.972V34.288H66.979V12.068Z"
            fill="white"
          />
          <path
            d="M58.4543 10.924C58.8063 10.924 59.2023 10.9533 59.6423 11.012C60.1117 11.0413 60.5664 11.1 61.0064 11.188C61.4464 11.2467 61.8423 11.32 62.1943 11.408C62.5757 11.4667 62.8543 11.5253 63.0303 11.584L62.3264 15.148C62.0037 15.0307 61.461 14.8987 60.6983 14.752C59.965 14.576 59.0117 14.488 57.8383 14.488C57.0757 14.488 56.313 14.576 55.5503 14.752C54.817 14.8987 54.333 15.0013 54.0983 15.06V34.288H50.0063V12.376C50.9743 12.024 52.177 11.7013 53.6143 11.408C55.0517 11.0853 56.665 10.924 58.4543 10.924Z"
            fill="white"
          />
          <path
            d="M44.2493 22.848C44.2493 24.6667 43.9853 26.3093 43.4573 27.776C42.9293 29.2427 42.1813 30.504 41.2133 31.56C40.2747 32.616 39.1453 33.4373 37.8253 34.024C36.5053 34.5813 35.068 34.86 33.5133 34.86C31.9587 34.86 30.5213 34.5813 29.2013 34.024C27.8813 33.4373 26.7373 32.616 25.7693 31.56C24.8307 30.504 24.0973 29.2427 23.5693 27.776C23.0413 26.3093 22.7773 24.6667 22.7773 22.848C22.7773 21.0587 23.0413 19.4307 23.5693 17.964C24.0973 16.468 24.8307 15.192 25.7693 14.136C26.7373 13.08 27.8813 12.2733 29.2013 11.716C30.5213 11.1293 31.9587 10.836 33.5133 10.836C35.068 10.836 36.5053 11.1293 37.8253 11.716C39.1453 12.2733 40.2747 13.08 41.2133 14.136C42.1813 15.192 42.9293 16.468 43.4573 17.964C43.9853 19.4307 44.2493 21.0587 44.2493 22.848ZM39.9813 22.848C39.9813 20.2667 39.3947 18.228 38.2213 16.732C37.0773 15.2067 35.508 14.444 33.5133 14.444C31.5187 14.444 29.9347 15.2067 28.7613 16.732C27.6173 18.228 27.0453 20.2667 27.0453 22.848C27.0453 25.4293 27.6173 27.4827 28.7613 29.008C29.9347 30.504 31.5187 31.252 33.5133 31.252C35.508 31.252 37.0773 30.504 38.2213 29.008C39.3947 27.4827 39.9813 25.4293 39.9813 22.848Z"
            fill="white"
          />
          <path
            d="M1.28613 34.288V3.79596H19.6781V7.44796H5.55413V16.644H18.0941V20.252H5.55413V34.288H1.28613Z"
            fill="white"
          />
        </svg>