<svg xmlns="http://www.w3.org/2000/svg" id="footerLogo" width="85" height="19" viewBox="0 0 85 19" fill="none">
<path d="M80.1302 16.8183C80.6521 16.8183 81.1107 16.8104 81.5061 16.7946C81.9172 16.763 82.2572 16.7156 82.5261 16.6523V12.9755C82.3679 12.8964 82.107 12.8332 81.7433 12.7857C81.3954 12.7225 80.9684 12.6909 80.4623 12.6909C80.1302 12.6909 79.7744 12.7146 79.3949 12.762C79.0312 12.8095 78.6912 12.9123 78.3749 13.0704C78.0744 13.2127 77.8214 13.4183 77.6158 13.6872C77.4102 13.9402 77.3074 14.2802 77.3074 14.7072C77.3074 15.4979 77.5605 16.0514 78.0665 16.3676C78.5726 16.6681 79.2605 16.8183 80.1302 16.8183ZM79.9405 5.76428C80.8261 5.76428 81.5693 5.88289 82.1703 6.1201C82.787 6.3415 83.2773 6.66569 83.641 7.09267C84.0205 7.50383 84.2894 8.00198 84.4475 8.5871C84.6056 9.15641 84.6847 9.78897 84.6847 10.4848V18.1942C84.4949 18.2258 84.2261 18.2732 83.8782 18.3365C83.5461 18.3839 83.1666 18.4314 82.7396 18.4788C82.3126 18.5263 81.8461 18.5658 81.34 18.5974C80.8498 18.6449 80.3595 18.6686 79.8693 18.6686C79.1735 18.6686 78.533 18.5974 77.9479 18.4551C77.3628 18.3128 76.8567 18.0914 76.4297 17.7909C76.0028 17.4746 75.6707 17.0635 75.4335 16.5574C75.1962 16.0514 75.0776 15.4425 75.0776 14.7309C75.0776 14.0509 75.2121 13.4658 75.4809 12.9755C75.7656 12.4853 76.1451 12.0899 76.6195 11.7895C77.0939 11.489 77.6474 11.2676 78.28 11.1253C78.9126 10.9829 79.5768 10.9118 80.2726 10.9118C80.494 10.9118 80.7233 10.9276 80.9605 10.9592C81.1977 10.975 81.4191 11.0067 81.6247 11.0541C81.8461 11.0857 82.0358 11.1174 82.194 11.149C82.3521 11.1806 82.4628 11.2043 82.5261 11.2202V10.6034C82.5261 10.2397 82.4866 9.88386 82.4075 9.53595C82.3284 9.17222 82.1861 8.85594 81.9805 8.5871C81.7749 8.30245 81.4903 8.08105 81.1265 7.92291C80.7786 7.74895 80.32 7.66198 79.7507 7.66198C79.0233 7.66198 78.3828 7.71733 77.8293 7.82802C77.2916 7.92291 76.8884 8.0257 76.6195 8.1364L76.3586 6.30987C76.6432 6.18336 77.1177 6.06475 77.7819 5.95405C78.446 5.82754 79.1656 5.76428 79.9405 5.76428Z" fill="#4E5460"/>
<path d="M73.1696 18.6448C71.8096 18.6132 70.8449 18.3206 70.2756 17.7672C69.7063 17.2137 69.4216 16.3518 69.4216 15.1815V0.379538L71.6277 0V14.8257C71.6277 15.1895 71.6593 15.4899 71.7226 15.7271C71.7858 15.9643 71.8886 16.1541 72.031 16.2964C72.1733 16.4388 72.3631 16.5495 72.6003 16.6285C72.8375 16.6918 73.13 16.7471 73.4779 16.7946L73.1696 18.6448Z" fill="#4E5460"/>
<path d="M65.6685 18.0518C65.1624 18.1783 64.4903 18.3128 63.6522 18.4551C62.8299 18.5974 61.8731 18.6686 60.7819 18.6686C59.8331 18.6686 59.0345 18.5342 58.3861 18.2653C57.7377 17.9807 57.2158 17.5853 56.8205 17.0793C56.4251 16.5732 56.1405 15.9802 55.9665 15.3002C55.7926 14.6043 55.7056 13.8374 55.7056 12.9992V6.07263H57.9117V12.5248C57.9117 14.0271 58.1489 15.1025 58.6233 15.7509C59.0977 16.3992 59.8963 16.7234 61.0191 16.7234C61.2564 16.7234 61.5015 16.7155 61.7545 16.6997C62.0075 16.6839 62.2447 16.6681 62.4661 16.6523C62.6875 16.6206 62.8852 16.5969 63.0592 16.5811C63.2489 16.5495 63.3833 16.5179 63.4624 16.4862V6.07263H65.6685V18.0518Z" fill="#4E5460"/>
<path d="M35.4163 6.4284C35.9223 6.30188 36.5865 6.16746 37.4089 6.02514C38.247 5.88281 39.2117 5.81165 40.3029 5.81165C41.0936 5.81165 41.7578 5.92234 42.2954 6.14374C42.8331 6.34933 43.2838 6.6577 43.6475 7.06887C43.7582 6.9898 43.9322 6.8791 44.1694 6.73677C44.4066 6.59444 44.6992 6.46002 45.0471 6.33351C45.395 6.19118 45.7824 6.07258 46.2094 5.97769C46.6364 5.86699 47.095 5.81165 47.5853 5.81165C48.5341 5.81165 49.309 5.95397 49.9099 6.23863C50.5109 6.50747 50.9774 6.89491 51.3095 7.40096C51.6574 7.90702 51.8867 8.50795 51.9974 9.20377C52.1239 9.89959 52.1872 10.6587 52.1872 11.481V18.4076H49.9811V11.9554C49.9811 11.228 49.9416 10.6033 49.8625 10.0815C49.7992 9.55959 49.6648 9.1247 49.4592 8.77679C49.2695 8.42888 49.0006 8.17585 48.6527 8.01771C48.3206 7.84376 47.8857 7.75678 47.348 7.75678C46.6048 7.75678 45.988 7.85957 45.4978 8.06516C45.0234 8.25493 44.6992 8.42888 44.5252 8.58702C44.6517 8.99819 44.7466 9.44889 44.8099 9.93913C44.8731 10.4294 44.9048 10.9433 44.9048 11.481V18.4076H42.6987V11.9554C42.6987 11.228 42.6592 10.6033 42.5801 10.0815C42.501 9.55959 42.3587 9.1247 42.1531 8.77679C41.9633 8.42888 41.6945 8.17585 41.3466 8.01771C41.0145 7.84376 40.5875 7.75678 40.0656 7.75678C39.8442 7.75678 39.607 7.76469 39.354 7.7805C39.101 7.79632 38.8559 7.82004 38.6186 7.85167C38.3973 7.86748 38.1917 7.8912 38.0019 7.92283C37.8121 7.95446 37.6856 7.97818 37.6224 7.99399V18.4076H35.4163V6.4284Z" fill="#4E5460"/>
<path d="M30.8205 5.81165C31.0103 5.81165 31.2238 5.82746 31.461 5.85909C31.714 5.8749 31.9591 5.90653 32.1963 5.95397C32.4336 5.9856 32.647 6.02514 32.8368 6.07258C33.0424 6.10421 33.1926 6.13583 33.2875 6.16746L32.908 8.08888C32.734 8.02562 32.4415 7.95446 32.0303 7.87539C31.6349 7.7805 31.121 7.73306 30.4884 7.73306C30.0773 7.73306 29.6661 7.7805 29.2549 7.87539C28.8596 7.95446 28.5986 8.00981 28.4721 8.04144V18.4076H26.2661V6.59444C26.7879 6.40467 27.4363 6.23072 28.2112 6.07258C28.9861 5.89862 29.8559 5.81165 30.8205 5.81165Z" fill="#4E5460"/>
<path d="M23.1622 12.2402C23.1622 13.2206 23.0199 14.1062 22.7352 14.8969C22.4506 15.6876 22.0473 16.3676 21.5254 16.937C21.0194 17.5063 20.4105 17.9491 19.6989 18.2653C18.9873 18.5658 18.2124 18.716 17.3742 18.716C16.5361 18.716 15.7612 18.5658 15.0496 18.2653C14.3379 17.9491 13.7212 17.5063 13.1993 16.937C12.6933 16.3676 12.2979 15.6876 12.0133 14.8969C11.7286 14.1062 11.5863 13.2206 11.5863 12.2402C11.5863 11.2755 11.7286 10.3978 12.0133 9.60711C12.2979 8.80059 12.6933 8.11268 13.1993 7.54337C13.7212 6.97406 14.3379 6.53917 15.0496 6.23871C15.7612 5.92242 16.5361 5.76428 17.3742 5.76428C18.2124 5.76428 18.9873 5.92242 19.6989 6.23871C20.4105 6.53917 21.0194 6.97406 21.5254 7.54337C22.0473 8.11268 22.4506 8.80059 22.7352 9.60711C23.0199 10.3978 23.1622 11.2755 23.1622 12.2402ZM20.8612 12.2402C20.8612 10.8485 20.545 9.74944 19.9124 8.94292C19.2957 8.12058 18.4496 7.70942 17.3742 7.70942C16.2989 7.70942 15.4449 8.12058 14.8124 8.94292C14.1956 9.74944 13.8872 10.8485 13.8872 12.2402C13.8872 13.6318 14.1956 14.7388 14.8124 15.5611C15.4449 16.3676 16.2989 16.7709 17.3742 16.7709C18.4496 16.7709 19.2957 16.3676 19.9124 15.5611C20.545 14.7388 20.8612 13.6318 20.8612 12.2402Z" fill="#4E5460"/>
<path d="M0 18.4076V1.96887H9.91545V3.93773H2.30095V8.89545H9.06149V10.8406H2.30095V18.4076H0Z" fill="#4E5460"/>
</svg>